<?xml version="1.0" encoding="UTF-8"?>
<svg id="Layer_1" data-name="Layer 1" xmlns="http://www.w3.org/2000/svg" xmlns:xlink="http://www.w3.org/1999/xlink" viewBox="0 0 4271.5 4697.43">
  <defs>
    <style>
      .cls-1 {
        fill: url(#linear-gradient);
      }

      .cls-1, .cls-2 {
        stroke-width: 0px;
      }

      .cls-2 {
        fill: url(#linear-gradient-2);
      }
    </style>
    <linearGradient id="linear-gradient" x1="1131.22" y1="786.67" x2="2557.86" y2="2910.16" gradientUnits="userSpaceOnUse">
      <stop offset="0" stop-color="#4a93ff"/>
      <stop offset=".13" stop-color="#4689ff"/>
      <stop offset=".34" stop-color="#3e70ff"/>
      <stop offset=".61" stop-color="#3046ff"/>
      <stop offset=".92" stop-color="#1c0dff"/>
      <stop offset=".99" stop-color="#1800ff"/>
    </linearGradient>
    <linearGradient id="linear-gradient-2" x1="2947.19" y1="4948.18" x2="1894.03" y2="1596.5" gradientUnits="userSpaceOnUse">
      <stop offset="0" stop-color="#55b5ff"/>
      <stop offset=".11" stop-color="#51abff"/>
      <stop offset=".29" stop-color="#4992ff"/>
      <stop offset=".52" stop-color="#3b68ff"/>
      <stop offset=".79" stop-color="#282fff"/>
      <stop offset=".99" stop-color="#1800ff"/>
    </linearGradient>
  </defs>
  <path class="cls-1" d="M1086.86,2348.21v.59c0,9.94.15,19.73.44,29.66,0,1.34,0,2.82.15,4.15,8.75,276.31,124.29,525.33,306.57,707.76l741.58,741.58,738.76-738.61,7.42-7.42c179.76-181.98,293.52-429.37,302.12-703.46-13.2,696.64-441.54,1291.68-1048.15,1547.97-205.12,86.62-430.71,134.52-667.42,134.52-617.29,0-1158.35-325.85-1460.76-814.85-5.04-35-7.56-70.6-7.56-106.64v-1589.5c0-36.04,2.52-71.64,7.56-106.64,32.33-229.15,168.19-433.23,371.98-550.84L1756.06,101.67c234.93-135.56,524.3-135.56,759.23,0l1376.52,794.83c203.79,117.61,339.79,321.85,372.12,551.14-302.27-489.29-843.47-815.14-1460.76-815.14-236.71,0-462.3,47.91-667.42,134.52-606.76,256.29-1035.1,851.18-1048.3,1547.97-.15,1.48-.15,2.82-.15,4.3-.3,9.64-.44,19.28-.44,28.92Z"/>
  <path class="cls-2" d="M4271.5,1553.98v1589.5c0,35.89-2.52,71.34-7.56,106.34-32.33,229.15-168.34,433.38-372.12,551.14l-1376.52,794.68c-234.93,135.71-524.3,135.71-759.23,0l-1376.52-794.68c-203.79-117.76-339.5-321.85-371.98-550.85,302.42,489,843.47,814.85,1460.76,814.85,236.71,0,462.3-47.91,667.42-134.52,606.61-256.29,1034.95-851.33,1048.15-1547.97.15-1.48.15-2.82.15-4.3.3-9.79.45-19.58.45-29.37v-.45c0-9.19-.15-18.54-.45-27.73,0-1.93,0-3.86-.15-5.79-8.45-267.12-116.73-509.02-288.92-689.82l-8.75-8.9-17.8-17.8-9.05-8.9-723.78-723.93-744.55,744.55c-180.5,182.13-295,430.27-303.6,704.95,13.2-696.79,441.54-1291.68,1048.3-1547.97,205.12-86.62,430.71-134.52,667.42-134.52,617.29,0,1158.5,325.85,1460.76,815.14,5.04,34.86,7.56,70.45,7.56,106.34Z"/>
</svg>